{
  "accessors": [
    {
      "bufferView": 2,
      "componentType": 5126,
      "count": 129,
      "max": [
        0.14622999727725983,
        0.9419599771499634,
        6.735109806060791
      ],
      "min": [
        -0.30757999420166016,
        -0.3319399952888489,
        0.41631001234054565
      ],
      "type": "VEC3"
    },
    {
      "bufferView": 2,
      "byteOffset": 1548,
      "componentType": 5126,
      "count": 129,
      "max": [
        0.9552074670791626,
        0.9992021322250366,
        1.0
      ],
      "min": [
        -0.9448584914207458,
        -0.9992021322250366,
        -0.6206001043319702
      ],
      "type": "VEC3"
    },
    {
      "bufferView": 1,
      "componentType": 5126,
      "count": 129,
      "max": [
        0.36469000577926636,
        0.8247100114822388
      ],
      "min": [
        0.01083999965339899,
        0.1276099979877472
      ],
      "type": "VEC2"
    },
    {
      "bufferView": 0,
      "componentType": 5125,
      "count": 198,
      "type": "SCALAR"
    },
    {
      "bufferView": 2,
      "byteOffset": 3096,
      "componentType": 5126,
      "count": 435,
      "max": [
        1.134619951248169,
        2.1202800273895264,
        6.663539886474609
      ],
      "min": [
        -1.3069900274276733,
        -0.2228199988603592,
        3.1275999546051025
      ],
      "type": "VEC3"
    },
    {
      "bufferView": 2,
      "byteOffset": 8316,
      "componentType": 5126,
      "count": 435,
      "max": [
        0.9992910623550415,
        0.9837638735771179,
        0.9909423589706421
      ],
      "min": [
        -0.9992659687995911,
        -0.999992847442627,
        -1.0
      ],
      "type": "VEC3"
    },
    {
      "bufferView": 1,
      "byteOffset": 1032,
      "componentType": 5126,
      "count": 435,
      "max": [
        0.5178400278091431,
        0.9876499772071838
      ],
      "min": [
        0.012120000086724758,
        0.4775499999523163
      ],
      "type": "VEC2"
    },
    {
      "bufferView": 0,
      "byteOffset": 792,
      "componentType": 5125,
      "count": 465,
      "type": "SCALAR"
    },
    {
      "bufferView": 2,
      "byteOffset": 13536,
      "componentType": 5126,
      "count": 24,
      "max": [
        0.7980999946594238,
        0.6477100253105164,
        0.41631001234054565
      ],
      "min": [
        -0.7799999713897705,
        -0.8829699754714966,
        -0.027939999476075172
      ],
      "type": "VEC3"
    },
    {
      "bufferView": 2,
      "byteOffset": 13824,
      "componentType": 5126,
      "count": 24,
      "max": [
        0.5444680452346802,
        0.6673995852470398,
        0.7322095632553101
      ],
      "min": [
        -0.6458985209465027,
        -0.6761154532432556,
        0.7322050929069519
      ],
      "type": "VEC3"
    },
    {
      "bufferView": 1,
      "byteOffset": 4512,
      "componentType": 5126,
      "count": 24,
      "max": [
        0.16534000635147095,
        0.4806300103664398
      ],
      "min": [
        0.08310999721288681,
        0.30546998977661133
      ],
      "type": "VEC2"
    },
    {
      "bufferView": 0,
      "byteOffset": 2652,
      "componentType": 5125,
      "count": 36,
      "type": "SCALAR"
    },
    {
      "bufferView": 3,
      "componentType": 5126,
      "count": 82,
      "max": [
        3.583329916000366
      ],
      "min": [
        0.20833000540733337
      ],
      "type": "SCALAR"
    },
    {
      "bufferView": 4,
      "componentType": 5126,
      "count": 82,
      "max": [
        0.08161000162363052,
        0.20340000092983246,
        -0.46417999267578125
      ],
      "min": [
        0.08161000162363052,
        0.20340000092983246,
        -0.6840599775314331
      ],
      "type": "VEC3"
    },
    {
      "bufferView": 3,
      "byteOffset": 328,
      "componentType": 5126,
      "count": 1,
      "max": [
        0.20833000540733337
      ],
      "min": [
        0.20833000540733337
      ],
      "type": "SCALAR"
    },
    {
      "bufferView": 5,
      "componentType": 5126,
      "count": 1,
      "max": [
        0.0,
        0.0,
        0.0,
        1.0
      ],
      "min": [
        0.0,
        0.0,
        0.0,
        1.0
      ],
      "type": "VEC4"
    }
  ],
  "animations": [
    {
      "channels": [
        {
          "sampler": 0,
          "target": {
            "node": 4,
            "path": "translation"
          }
        },
        {
          "sampler": 1,
          "target": {
            "node": 4,
            "path": "rotation"
          }
        }
      ],
      "name": "IlhaAction",
      "samplers": [
        {
          "input": 12,
          "interpolation": "LINEAR",
          "output": 13
        },
        {
          "input": 14,
          "interpolation": "LINEAR",
          "output": 15
        }
      ]
    }
  ],
  "asset": {
    "extras": {
      "author": "Víctu (https://sketchfab.com/Victucomacento)",
      "license": "CC-BY-4.0 (http://creativecommons.org/licenses/by/4.0/)",
      "source": "https://sketchfab.com/3d-models/island-volcano-a7b2f37f4292432e9ef6cfae7a4874a2",
      "title": "Island Volcano"
    },
    "generator": "Sketchfab-12.67.0",
    "version": "2.0"
  },
  "bufferViews": [
    {
      "buffer": 0,
      "byteLength": 2796,
      "name": "floatBufferViews",
      "target": 34963
    },
    {
      "buffer": 0,
      "byteLength": 4704,
      "byteOffset": 2796,
      "byteStride": 8,
      "name": "floatBufferViews",
      "target": 34962
    },
    {
      "buffer": 0,
      "byteLength": 14112,
      "byteOffset": 7500,
      "byteStride": 12,
      "name": "floatBufferViews",
      "target": 34962
    },
    {
      "buffer": 0,
      "byteLength": 332,
      "byteOffset": 21612,
      "name": "floatBufferViews"
    },
    {
      "buffer": 0,
      "byteLength": 984,
      "byteOffset": 21944,
      "byteStride": 12,
      "name": "floatBufferViews"
    },
    {
      "buffer": 0,
      "byteLength": 16,
      "byteOffset": 22928,
      "byteStride": 16,
      "name": "floatBufferViews"
    }
  ],
  "buffers": [
    {
      "byteLength": 22944,
      "uri": "scene.bin"
    }
  ],
  "extensionsRequired": [
    "KHR_materials_pbrSpecularGlossiness"
  ],
  "extensionsUsed": [
    "KHR_materials_pbrSpecularGlossiness"
  ],
  "images": [
    {
      "uri": "textures/Lava_diffuse.png"
    },
    {
      "uri": "textures/Terra_specularGlossiness.png"
    }
  ],
  "materials": [
    {
      "doubleSided": true,
      "extensions": {
        "KHR_materials_pbrSpecularGlossiness": {
          "diffuseFactor": [
            1.0,
            1.0,
            1.0,
            1.0
          ],
          "diffuseTexture": {
            "index": 0
          },
          "glossinessFactor": 0.4,
          "specularFactor": [
            0.0,
            0.0,
            0.0
          ]
        }
      },
      "name": "Lava"
    },
    {
      "doubleSided": true,
      "extensions": {
        "KHR_materials_pbrSpecularGlossiness": {
          "diffuseFactor": [
            1.0,
            1.0,
            1.0,
            1.0
          ],
          "diffuseTexture": {
            "index": 0
          },
          "glossinessFactor": 0.34984847560073384,
          "specularFactor": [
            0.0865151608,
            0.0865151608,
            0.0865151608
          ],
          "specularGlossinessTexture": {
            "index": 1
          }
        }
      },
      "name": "Terra"
    }
  ],
  "meshes": [
    {
      "name": "Ilha_0",
      "primitives": [
        {
          "attributes": {
            "NORMAL": 1,
            "POSITION": 0,
            "TEXCOORD_0": 2
          },
          "indices": 3,
          "material": 0,
          "mode": 4
        }
      ]
    },
    {
      "name": "Ilha_1",
      "primitives": [
        {
          "attributes": {
            "NORMAL": 5,
            "POSITION": 4,
            "TEXCOORD_0": 6
          },
          "indices": 7,
          "material": 1,
          "mode": 4
        }
      ]
    },
    {
      "name": "Lava_0",
      "primitives": [
        {
          "attributes": {
            "NORMAL": 9,
            "POSITION": 8,
            "TEXCOORD_0": 10
          },
          "indices": 11,
          "material": 0,
          "mode": 4
        }
      ]
    }
  ],
  "nodes": [
    {
      "children": [
        1
      ],
      "matrix": [
        1.0,
        0.0,
        0.0,
        0.0,
        0.0,
        2.220446049250313e-16,
        -1.0,
        0.0,
        0.0,
        1.0,
        2.220446049250313e-16,
        0.0,
        0.0,
        0.0,
        0.0,
        1.0
      ],
      "name": "Sketchfab_model"
    },
    {
      "children": [
        2,
        4,
        7
      ],
      "name": "Root"
    },
    {
      "children": [
        3
      ],
      "matrix": [
        -0.29086000000000006,
        0.9551700000000001,
        -0.05519000000000001,
        0.0,
        -0.7711,
        -0.19988000000000003,
        0.6045200000000001,
        0.0,
        0.5663900000000001,
        0.21839000000000003,
        0.7946700000000001,
        0.0,
        -7.33725,
        5.407660000000001,
        -3.17721,
        1.0
      ],
      "name": "Lamp"
    },
    {
      "name": "Lamp"
    },
    {
      "children": [
        5,
        6
      ],
      "name": "Ilha",
      "translation": [
        0.08161000162363052,
        0.20340000092983246,
        -0.586329996585846
      ]
    },
    {
      "mesh": 0,
      "name": "Ilha_0"
    },
    {
      "mesh": 1,
      "name": "Ilha_1"
    },
    {
      "children": [
        8
      ],
      "matrix": [
        1.0,
        0.0,
        0.0,
        0.0,
        0.0,
        1.0,
        0.0,
        0.0,
        0.0,
        0.0,
        1.0,
        0.0,
        0.08161000000000002,
        0.20340000000000003,
        0.0,
        1.0
      ],
      "name": "Lava"
    },
    {
      "mesh": 2,
      "name": "Lava_0"
    }
  ],
  "samplers": [
    {
      "magFilter": 9729,
      "minFilter": 9987,
      "wrapS": 10497,
      "wrapT": 10497
    }
  ],
  "scene": 0,
  "scenes": [
    {
      "name": "Sketchfab_Scene",
      "nodes": [
        0
      ]
    }
  ],
  "textures": [
    {
      "sampler": 0,
      "source": 0
    },
    {
      "sampler": 0,
      "source": 1
    }
  ]
}
