{
  "accessors": [
    {
      "bufferView": 2,
      "componentType": 5126,
      "count": 44601,
      "max": [
        3.384909152984619,
        31.979713439941406,
        1.0064780712127686
      ],
      "min": [
        -3.3710951805114746,
        14.466226577758789,
        -17.332172393798828
      ],
      "type": "VEC3"
    },
    {
      "bufferView": 2,
      "byteOffset": 535212,
      "componentType": 5126,
      "count": 44601,
      "max": [
        1.0,
        1.0,
        1.0
      ],
      "min": [
        -1.0,
        -1.0,
        -1.0
      ],
      "type": "VEC3"
    },
    {
      "bufferView": 1,
      "componentType": 5126,
      "count": 44601,
      "max": [
        1.000535249710083,
        1.0000003576278687
      ],
      "min": [
        -0.0004717707633972168,
        5.960464477539063e-08
      ],
      "type": "VEC2"
    },
    {
      "bufferView": 0,
      "componentType": 5125,
      "count": 248778,
      "type": "SCALAR"
    },
    {
      "bufferView": 2,
      "byteOffset": 1070424,
      "componentType": 5126,
      "count": 36,
      "max": [
        0.7016184329986572,
        0.09908125549554825,
        0.7207291722297668
      ],
      "min": [
        -0.7478240728378296,
        -1.2665987014770508e-07,
        -0.7457156777381897
      ],
      "type": "VEC3"
    },
    {
      "bufferView": 2,
      "byteOffset": 1070856,
      "componentType": 5126,
      "count": 36,
      "max": [
        0.14209052920341492,
        1.0,
        0.1690586507320404
      ],
      "min": [
        -0.14451025426387787,
        0.9838224649429321,
        -0.1352497935295105
      ],
      "type": "VEC3"
    },
    {
      "bufferView": 1,
      "byteOffset": 356808,
      "componentType": 5126,
      "count": 36,
      "max": [
        1.0,
        1.0
      ],
      "min": [
        0.0,
        0.0
      ],
      "type": "VEC2"
    },
    {
      "bufferView": 0,
      "byteOffset": 995112,
      "componentType": 5125,
      "count": 150,
      "type": "SCALAR"
    },
    {
      "bufferView": 2,
      "byteOffset": 1071288,
      "componentType": 5126,
      "count": 439,
      "max": [
        1.0,
        4.551885604858398,
        1.0000001192092896
      ],
      "min": [
        -1.000000238418579,
        -0.4233512282371521,
        -1.0000004768371582
      ],
      "type": "VEC3"
    },
    {
      "bufferView": 2,
      "byteOffset": 1076556,
      "componentType": 5126,
      "count": 439,
      "max": [
        1.0,
        1.0,
        1.0
      ],
      "min": [
        -1.0,
        -1.0,
        -1.0
      ],
      "type": "VEC3"
    },
    {
      "bufferView": 1,
      "byteOffset": 357096,
      "componentType": 5126,
      "count": 439,
      "max": [
        1.0000001192092896,
        1.0
      ],
      "min": [
        0.0,
        0.0
      ],
      "type": "VEC2"
    },
    {
      "bufferView": 0,
      "byteOffset": 995712,
      "componentType": 5125,
      "count": 2280,
      "type": "SCALAR"
    },
    {
      "bufferView": 2,
      "byteOffset": 1081824,
      "componentType": 5126,
      "count": 2961,
      "max": [
        2.1246063709259033,
        0.9179978966712952,
        2.1228551864624023
      ],
      "min": [
        -2.1211092472076416,
        0.7734347581863403,
        -2.1228561401367188
      ],
      "type": "VEC3"
    },
    {
      "bufferView": 2,
      "byteOffset": 1117356,
      "componentType": 5126,
      "count": 2961,
      "max": [
        0.5619796514511108,
        0.9998628497123718,
        0.562933623790741
      ],
      "min": [
        -0.5638846755027771,
        0.8258535265922546,
        -0.5629342794418335
      ],
      "type": "VEC3"
    },
    {
      "bufferView": 1,
      "byteOffset": 360608,
      "componentType": 5126,
      "count": 2961,
      "max": [
        1.0,
        0.9166666865348816
      ],
      "min": [
        0.0,
        0.5000001192092896
      ],
      "type": "VEC2"
    },
    {
      "bufferView": 0,
      "byteOffset": 1004832,
      "componentType": 5125,
      "count": 16800,
      "type": "SCALAR"
    },
    {
      "bufferView": 2,
      "byteOffset": 1152888,
      "componentType": 5126,
      "count": 101,
      "max": [
        1.0,
        1.0,
        0.9980267882347107
      ],
      "min": [
        -0.9921149015426636,
        1.0,
        -0.9980268478393555
      ],
      "type": "VEC3"
    },
    {
      "bufferView": 2,
      "byteOffset": 1154100,
      "componentType": 5126,
      "count": 101,
      "max": [
        0.0,
        1.0,
        2.48892746412821e-07
      ],
      "min": [
        0.0,
        1.0,
        -2.4889271799111157e-07
      ],
      "type": "VEC3"
    },
    {
      "bufferView": 1,
      "byteOffset": 384296,
      "componentType": 5126,
      "count": 101,
      "max": [
        0.65625,
        0.9996916651725769
      ],
      "min": [
        0.3449820876121521,
        0.6878083348274231
      ],
      "type": "VEC2"
    },
    {
      "bufferView": 0,
      "byteOffset": 1072032,
      "componentType": 5125,
      "count": 525,
      "type": "SCALAR"
    },
    {
      "bufferView": 3,
      "componentType": 5126,
      "count": 80,
      "max": [
        5.0
      ],
      "min": [
        0.0416666679084301
      ],
      "type": "SCALAR"
    },
    {
      "bufferView": 4,
      "componentType": 5126,
      "count": 80,
      "max": [
        0.03338439390063286,
        14.555394172668457,
        0.05762552469968796
      ],
      "min": [
        0.03338439390063286,
        0.7851758599281311,
        0.05762552469968796
      ],
      "type": "VEC3"
    },
    {
      "bufferView": 3,
      "byteOffset": 320,
      "componentType": 5126,
      "count": 79,
      "max": [
        5.0
      ],
      "min": [
        0.0416666679084301
      ],
      "type": "SCALAR"
    },
    {
      "bufferView": 4,
      "byteOffset": 960,
      "componentType": 5126,
      "count": 79,
      "max": [
        0.6474498510360718,
        0.6582604646682739,
        0.6474498510360718
      ],
      "min": [
        0.6474498510360718,
        0.024121614173054695,
        0.6474498510360718
      ],
      "type": "VEC3"
    },
    {
      "bufferView": 3,
      "byteOffset": 636,
      "componentType": 5126,
      "count": 89,
      "max": [
        5.0
      ],
      "min": [
        0.0416666679084301
      ],
      "type": "SCALAR"
    },
    {
      "bufferView": 4,
      "byteOffset": 1908,
      "componentType": 5126,
      "count": 89,
      "max": [
        0.016267411410808563,
        1.4977577924728394,
        0.03864365816116333
      ],
      "min": [
        -0.013976918533444405,
        0.8770617246627808,
        0.03864365816116333
      ],
      "type": "VEC3"
    },
    {
      "bufferView": 3,
      "byteOffset": 992,
      "componentType": 5126,
      "count": 89,
      "max": [
        5.0
      ],
      "min": [
        0.0416666679084301
      ],
      "type": "SCALAR"
    },
    {
      "bufferView": 4,
      "byteOffset": 2976,
      "componentType": 5126,
      "count": 89,
      "max": [
        8.185454368591309,
        0.7990627884864807,
        8.185454368591309
      ],
      "min": [
        -8.185454368591309,
        -0.0005224362830631435,
        -8.185454368591309
      ],
      "type": "VEC3"
    },
    {
      "bufferView": 3,
      "byteOffset": 1348,
      "componentType": 5126,
      "count": 6,
      "max": [
        5.0
      ],
      "min": [
        0.0416666679084301
      ],
      "type": "SCALAR"
    },
    {
      "bufferView": 5,
      "componentType": 5126,
      "count": 6,
      "max": [
        0.0,
        1.0,
        0.0,
        1.0
      ],
      "min": [
        -6.123234262925839e-17,
        0.0,
        -6.123234262925839e-17,
        3.7493993930529855e-33
      ],
      "type": "VEC4"
    }
  ],
  "animations": [
    {
      "channels": [
        {
          "sampler": 0,
          "target": {
            "node": 14,
            "path": "translation"
          }
        },
        {
          "sampler": 1,
          "target": {
            "node": 14,
            "path": "scale"
          }
        },
        {
          "sampler": 2,
          "target": {
            "node": 16,
            "path": "translation"
          }
        },
        {
          "sampler": 3,
          "target": {
            "node": 16,
            "path": "scale"
          }
        },
        {
          "sampler": 4,
          "target": {
            "node": 16,
            "path": "rotation"
          }
        }
      ],
      "name": "Take 001",
      "samplers": [
        {
          "input": 20,
          "interpolation": "LINEAR",
          "output": 21
        },
        {
          "input": 22,
          "interpolation": "LINEAR",
          "output": 23
        },
        {
          "input": 24,
          "interpolation": "LINEAR",
          "output": 25
        },
        {
          "input": 26,
          "interpolation": "LINEAR",
          "output": 27
        },
        {
          "input": 28,
          "interpolation": "LINEAR",
          "output": 29
        }
      ]
    }
  ],
  "asset": {
    "extras": {
      "author": "mysteriouspeter (https://sketchfab.com/mysteriouspeter)",
      "license": "CC-BY-4.0 (http://creativecommons.org/licenses/by/4.0/)",
      "source": "https://sketchfab.com/3d-models/tap-water-dripping-loop-animation-988295eb0739491f83538a52da2a2941",
      "title": "Tap Water Dripping Loop Animation"
    },
    "generator": "Sketchfab-12.68.0",
    "version": "2.0"
  },
  "bufferViews": [
    {
      "buffer": 0,
      "byteLength": 1074132,
      "name": "floatBufferViews",
      "target": 34963
    },
    {
      "buffer": 0,
      "byteLength": 385104,
      "byteOffset": 1074132,
      "byteStride": 8,
      "name": "floatBufferViews",
      "target": 34962
    },
    {
      "buffer": 0,
      "byteLength": 1155312,
      "byteOffset": 1459236,
      "byteStride": 12,
      "name": "floatBufferViews",
      "target": 34962
    },
    {
      "buffer": 0,
      "byteLength": 1372,
      "byteOffset": 2614548,
      "name": "floatBufferViews"
    },
    {
      "buffer": 0,
      "byteLength": 4044,
      "byteOffset": 2615920,
      "byteStride": 12,
      "name": "floatBufferViews"
    },
    {
      "buffer": 0,
      "byteLength": 96,
      "byteOffset": 2619964,
      "byteStride": 16,
      "name": "floatBufferViews"
    }
  ],
  "buffers": [
    {
      "byteLength": 2620060,
      "uri": "scene.bin"
    }
  ],
  "images": [
    {
      "uri": "textures/material_baseColor.jpeg"
    }
  ],
  "materials": [
    {
      "doubleSided": true,
      "name": "material",
      "pbrMetallicRoughness": {
        "baseColorTexture": {
          "index": 0
        },
        "roughnessFactor": 0.6683333425810842
      }
    },
    {
      "alphaMode": "BLEND",
      "doubleSided": true,
      "name": "water_cover",
      "pbrMetallicRoughness": {
        "baseColorFactor": [
          0.5190816593712904,
          0.7320723267688625,
          1.0,
          0.40439393014618846
        ],
        "roughnessFactor": 0.16196968772194598
      }
    },
    {
      "alphaMode": "BLEND",
      "doubleSided": true,
      "name": "water_in_tap",
      "pbrMetallicRoughness": {
        "baseColorFactor": [
          0.739837,
          0.739837,
          0.739837,
          0.2286363543886128
        ],
        "roughnessFactor": 0.0
      }
    },
    {
      "doubleSided": true,
      "name": "water",
      "pbrMetallicRoughness": {
        "baseColorFactor": [
          0.3135832397794071,
          0.4790325337191101,
          0.6143804485085214,
          1.0
        ],
        "roughnessFactor": 0.0
      }
    }
  ],
  "meshes": [
    {
      "name": "pPipe3_Tap_0",
      "primitives": [
        {
          "attributes": {
            "NORMAL": 1,
            "POSITION": 0,
            "TEXCOORD_0": 2
          },
          "indices": 3,
          "material": 0,
          "mode": 4
        }
      ]
    },
    {
      "name": "pPlane1_water_cover_0",
      "primitives": [
        {
          "attributes": {
            "NORMAL": 5,
            "POSITION": 4,
            "TEXCOORD_0": 6
          },
          "indices": 7,
          "material": 1,
          "mode": 4
        }
      ]
    },
    {
      "name": "pSphere1_water_in_tap_0",
      "primitives": [
        {
          "attributes": {
            "NORMAL": 9,
            "POSITION": 8,
            "TEXCOORD_0": 10
          },
          "indices": 11,
          "material": 2,
          "mode": 4
        }
      ]
    },
    {
      "name": "pPipe4_water_0",
      "primitives": [
        {
          "attributes": {
            "NORMAL": 13,
            "POSITION": 12,
            "TEXCOORD_0": 14
          },
          "indices": 15,
          "material": 3,
          "mode": 4
        }
      ]
    },
    {
      "name": "pCylinder1_water_0",
      "primitives": [
        {
          "attributes": {
            "NORMAL": 17,
            "POSITION": 16,
            "TEXCOORD_0": 18
          },
          "indices": 19,
          "material": 3,
          "mode": 4
        }
      ]
    }
  ],
  "nodes": [
    {
      "children": [
        1
      ],
      "matrix": [
        0.02052099071443081,
        0.0,
        0.0,
        0.0,
        0.0,
        4.556575275856025e-18,
        -0.02052099071443081,
        0.0,
        0.0,
        0.02052099071443081,
        4.556575275856025e-18,
        0.0,
        0.0,
        0.0,
        0.0,
        1.0
      ],
      "name": "Sketchfab_model"
    },
    {
      "children": [
        2
      ],
      "matrix": [
        1.0,
        0.0,
        0.0,
        0.0,
        0.0,
        0.0,
        1.0,
        0.0,
        0.0,
        -1.0,
        0.0,
        0.0,
        0.0,
        0.0,
        0.0,
        1.0
      ],
      "name": "0c3334ba211a435c8ca3f7f86dfa527a.fbx"
    },
    {
      "children": [
        3
      ],
      "name": "Object_2"
    },
    {
      "children": [
        4,
        6,
        8,
        10,
        12,
        14,
        16,
        18
      ],
      "name": "RootNode"
    },
    {
      "children": [
        5
      ],
      "name": "bottom",
      "rotation": [
        0.5,
        0.5,
        0.5,
        0.5
      ],
      "translation": [
        0.0,
        -100.0999984741211,
        0.0
      ]
    },
    {
      "name": "Object_5"
    },
    {
      "children": [
        7
      ],
      "name": "back",
      "rotation": [
        -0.0,
        -0.7071068286895752,
        0.0,
        0.7071068286895752
      ],
      "translation": [
        -7.311532020568848,
        14.820672988891602,
        -100.0999984741211
      ]
    },
    {
      "name": "Object_7"
    },
    {
      "children": [
        9
      ],
      "name": "left",
      "rotation": [
        0.0,
        1.1102230246251565e-16,
        0.0,
        1.0
      ],
      "translation": [
        -100.0999984741211,
        18.513717651367188,
        6.006540775299072
      ]
    },
    {
      "name": "Object_9"
    },
    {
      "children": [
        11
      ],
      "name": "pPipe3"
    },
    {
      "mesh": 0,
      "name": "pPipe3_Tap_0"
    },
    {
      "children": [
        13
      ],
      "name": "pPlane1",
      "rotation": [
        0.0,
        0.0,
        1.0,
        6.123234262925839e-17
      ],
      "scale": [
        1.1785027980804443,
        1.1785027980804443,
        1.1785027980804443
      ],
      "translation": [
        1.195116256562841e-17,
        14.575212478637695,
        -0.17759595811367035
      ]
    },
    {
      "mesh": 1,
      "name": "pPlane1_water_cover_0"
    },
    {
      "children": [
        15
      ],
      "name": "pSphere1",
      "scale": [
        0.6474498510360718,
        0.024121614173054695,
        0.6474498510360718
      ],
      "translation": [
        0.03338439390063286,
        0.7851758599281311,
        0.05762552469968796
      ]
    },
    {
      "mesh": 2,
      "name": "pSphere1_water_in_tap_0"
    },
    {
      "children": [
        17
      ],
      "name": "pPipe4",
      "scale": [
        8.185454368591309,
        0.07554316520690918,
        8.185454368591309
      ],
      "translation": [
        -0.013976918533444405,
        1.4565420150756836,
        0.03864365816116333
      ]
    },
    {
      "mesh": 3,
      "name": "pPipe4_water_0"
    },
    {
      "children": [
        19
      ],
      "name": "pCylinder1",
      "scale": [
        17.519752502441406,
        17.519752502441406,
        17.519752502441406
      ],
      "translation": [
        -0.012942720204591751,
        -16.022315979003906,
        0.0
      ]
    },
    {
      "mesh": 4,
      "name": "pCylinder1_water_0"
    }
  ],
  "samplers": [
    {
      "magFilter": 9729,
      "minFilter": 9987,
      "wrapS": 10497,
      "wrapT": 10497
    }
  ],
  "scene": 0,
  "scenes": [
    {
      "name": "Sketchfab_Scene",
      "nodes": [
        0
      ]
    }
  ],
  "textures": [
    {
      "sampler": 0,
      "source": 0
    }
  ]
}
